<svg width="16" height="12" viewBox="0 0 16 12" fill="none" xmlns="http://www.w3.org/2000/svg">
<path d="M15.8333 2.80003C15.8333 2.80003 15.6667 1.70003 15.2 1.20003C14.6 0.566699 13.9 0.566699 13.6 0.533366C11.3667 0.366699 8 0.366699 8 0.366699C8 0.366699 4.63333 0.366699 2.4 0.533366C2.1 0.566699 1.4 0.566699 0.8 1.20003C0.333333 1.70003 0.166667 2.80003 0.166667 2.80003C0.166667 2.80003 0 4.10003 0 5.40003V6.60003C0 7.90003 0.166667 9.20003 0.166667 9.20003C0.166667 9.20003 0.333333 10.3 0.8 10.8C1.4 11.4334 2.2 11.4334 2.56667 11.5C3.83333 11.6334 8 11.6667 8 11.6667C8 11.6667 11.3667 11.6667 13.6 11.5C13.9 11.4667 14.6 11.4667 15.2 10.8334C15.6667 10.3334 15.8333 9.23337 15.8333 9.23337C15.8333 9.23337 16 7.93337 16 6.63337V5.43337C16 4.10003 15.8333 2.80003 15.8333 2.80003ZM6.33333 8.0667V3.5667L10.6667 5.83337L6.33333 8.0667Z" fill="white"/>
</svg>
